<svg xmlns="http://www.w3.org/2000/svg" xmlns:xlink="http://www.w3.org/1999/xlink" width="500" zoomAndPan="magnify" viewBox="0 0 375 374.999991" height="500" preserveAspectRatio="xMidYMid meet" version="1.0"><defs><clipPath id="04b6c32280"><path d="M 25.476562 37.5 L 349.523438 37.5 L 349.523438 361.546875 L 25.476562 361.546875 Z M 25.476562 37.5 " clip-rule="nonzero"/></clipPath><clipPath id="f97db7a5c6"><path d="M 349.523438 199.527344 C 349.523438 289.003906 276.980469 361.546875 187.5 361.546875 C 98.015625 361.546875 25.476562 289.003906 25.476562 199.527344 C 25.476562 110.042969 98.015625 37.5 187.5 37.5 C 276.984375 37.5 349.523438 110.042969 349.523438 199.527344 " clip-rule="nonzero"/></clipPath><linearGradient x1="-35.214098" gradientTransform="matrix(0.648099, 0, 0, 0.648096, 25.475229, 37.499999)" y1="50.290943" x2="535.214093" gradientUnits="userSpaceOnUse" y2="449.709038" id="b54a6ea001"><stop stop-opacity="1" stop-color="rgb(18.798828%, 81.199646%, 81.599426%)" offset="0"/><stop stop-opacity="1" stop-color="rgb(18.803406%, 80.89447%, 81.437683%)" offset="0.00390625"/><stop stop-opacity="1" stop-color="rgb(18.807983%, 80.589294%, 81.277466%)" offset="0.0078125"/><stop stop-opacity="1" stop-color="rgb(18.812561%, 80.284119%, 81.115723%)" offset="0.0117187"/><stop stop-opacity="1" stop-color="rgb(18.818665%, 79.978943%, 80.955505%)" offset="0.015625"/><stop stop-opacity="1" stop-color="rgb(18.823242%, 79.673767%, 80.793762%)" offset="0.0195312"/><stop stop-opacity="1" stop-color="rgb(18.82782%, 79.368591%, 80.633545%)" offset="0.0234375"/><stop stop-opacity="1" stop-color="rgb(18.832397%, 79.063416%, 80.471802%)" offset="0.0273437"/><stop stop-opacity="1" stop-color="rgb(18.836975%, 78.75824%, 80.311584%)" offset="0.03125"/><stop stop-opacity="1" stop-color="rgb(18.841553%, 78.453064%, 80.149841%)" offset="0.0351562"/><stop stop-opacity="1" stop-color="rgb(18.84613%, 78.147888%, 79.989624%)" offset="0.0390625"/><stop stop-opacity="1" stop-color="rgb(18.850708%, 77.842712%, 79.827881%)" offset="0.0429688"/><stop stop-opacity="1" stop-color="rgb(18.855286%, 77.539062%, 79.667664%)" offset="0.046875"/><stop stop-opacity="1" stop-color="rgb(18.859863%, 77.233887%, 79.50592%)" offset="0.0507812"/><stop stop-opacity="1" stop-color="rgb(18.864441%, 76.928711%, 79.345703%)" offset="0.0546875"/><stop stop-opacity="1" stop-color="rgb(18.869019%, 76.623535%, 79.18396%)" offset="0.0585938"/><stop stop-opacity="1" stop-color="rgb(18.873596%, 76.318359%, 79.023743%)" offset="0.0625"/><stop stop-opacity="1" stop-color="rgb(18.878174%, 76.013184%, 78.862%)" offset="0.0664062"/><stop stop-opacity="1" stop-color="rgb(18.884277%, 75.708008%, 78.701782%)" offset="0.0703125"/><stop stop-opacity="1" stop-color="rgb(18.888855%, 75.402832%, 78.540039%)" offset="0.0742188"/><stop stop-opacity="1" stop-color="rgb(18.893433%, 75.097656%, 78.379822%)" offset="0.078125"/><stop stop-opacity="1" stop-color="rgb(18.89801%, 74.79248%, 78.218079%)" offset="0.0820312"/><stop stop-opacity="1" stop-color="rgb(18.902588%, 74.487305%, 78.057861%)" offset="0.0859375"/><stop stop-opacity="1" stop-color="rgb(18.907166%, 74.182129%, 77.897644%)" offset="0.0898437"/><stop stop-opacity="1" stop-color="rgb(18.911743%, 73.876953%, 77.737427%)" offset="0.09375"/><stop stop-opacity="1" stop-color="rgb(18.916321%, 73.571777%, 77.575684%)" offset="0.0976562"/><stop stop-opacity="1" stop-color="rgb(18.920898%, 73.266602%, 77.415466%)" offset="0.101562"/><stop stop-opacity="1" stop-color="rgb(18.925476%, 72.961426%, 77.253723%)" offset="0.105469"/><stop stop-opacity="1" stop-color="rgb(18.930054%, 72.657776%, 77.093506%)" offset="0.109375"/><stop stop-opacity="1" stop-color="rgb(18.934631%, 72.3526%, 76.931763%)" offset="0.113281"/><stop stop-opacity="1" stop-color="rgb(18.939209%, 72.047424%, 76.771545%)" offset="0.117187"/><stop stop-opacity="1" stop-color="rgb(18.943787%, 71.742249%, 76.609802%)" offset="0.121094"/><stop stop-opacity="1" stop-color="rgb(18.94989%, 71.437073%, 76.449585%)" offset="0.125"/><stop stop-opacity="1" stop-color="rgb(18.954468%, 71.131897%, 76.287842%)" offset="0.128906"/><stop stop-opacity="1" stop-color="rgb(18.959045%, 70.826721%, 76.127625%)" offset="0.132812"/><stop stop-opacity="1" stop-color="rgb(18.963623%, 70.521545%, 75.965881%)" offset="0.136719"/><stop stop-opacity="1" stop-color="rgb(18.968201%, 70.21637%, 75.805664%)" offset="0.140625"/><stop stop-opacity="1" stop-color="rgb(18.972778%, 69.911194%, 75.643921%)" offset="0.144531"/><stop stop-opacity="1" stop-color="rgb(18.977356%, 69.606018%, 75.483704%)" offset="0.148438"/><stop stop-opacity="1" stop-color="rgb(18.981934%, 69.300842%, 75.32196%)" offset="0.152344"/><stop stop-opacity="1" stop-color="rgb(18.986511%, 68.995667%, 75.161743%)" offset="0.15625"/><stop stop-opacity="1" stop-color="rgb(18.991089%, 68.690491%, 75%)" offset="0.160156"/><stop stop-opacity="1" stop-color="rgb(18.995667%, 68.385315%, 74.839783%)" offset="0.164062"/><stop stop-opacity="1" stop-color="rgb(19.000244%, 68.080139%, 74.67804%)" offset="0.167969"/><stop stop-opacity="1" stop-color="rgb(19.004822%, 67.776489%, 74.517822%)" offset="0.171875"/><stop stop-opacity="1" stop-color="rgb(19.009399%, 67.471313%, 74.356079%)" offset="0.175781"/><stop stop-opacity="1" stop-color="rgb(19.015503%, 67.166138%, 74.195862%)" offset="0.179688"/><stop stop-opacity="1" stop-color="rgb(19.020081%, 66.860962%, 74.034119%)" offset="0.183594"/><stop stop-opacity="1" stop-color="rgb(19.024658%, 66.555786%, 73.873901%)" offset="0.1875"/><stop stop-opacity="1" stop-color="rgb(19.029236%, 66.25061%, 73.712158%)" offset="0.191406"/><stop stop-opacity="1" stop-color="rgb(19.033813%, 65.945435%, 73.551941%)" offset="0.195312"/><stop stop-opacity="1" stop-color="rgb(19.038391%, 65.640259%, 73.390198%)" offset="0.199219"/><stop stop-opacity="1" stop-color="rgb(19.042969%, 65.335083%, 73.22998%)" offset="0.203125"/><stop stop-opacity="1" stop-color="rgb(19.047546%, 65.029907%, 73.068237%)" offset="0.207031"/><stop stop-opacity="1" stop-color="rgb(19.052124%, 64.724731%, 72.90802%)" offset="0.210938"/><stop stop-opacity="1" stop-color="rgb(19.056702%, 64.419556%, 72.746277%)" offset="0.214844"/><stop stop-opacity="1" stop-color="rgb(19.061279%, 64.11438%, 72.58606%)" offset="0.21875"/><stop stop-opacity="1" stop-color="rgb(19.065857%, 63.809204%, 72.425842%)" offset="0.222656"/><stop stop-opacity="1" stop-color="rgb(19.070435%, 63.504028%, 72.265625%)" offset="0.226562"/><stop stop-opacity="1" stop-color="rgb(19.075012%, 63.198853%, 72.103882%)" offset="0.230469"/><stop stop-opacity="1" stop-color="rgb(19.081116%, 62.895203%, 71.943665%)" offset="0.234375"/><stop stop-opacity="1" stop-color="rgb(19.085693%, 62.590027%, 71.781921%)" offset="0.238281"/><stop stop-opacity="1" stop-color="rgb(19.090271%, 62.284851%, 71.621704%)" offset="0.242188"/><stop stop-opacity="1" stop-color="rgb(19.094849%, 61.979675%, 71.459961%)" offset="0.246094"/><stop stop-opacity="1" stop-color="rgb(19.099426%, 61.6745%, 71.299744%)" offset="0.25"/><stop stop-opacity="1" stop-color="rgb(19.104004%, 61.369324%, 71.138%)" offset="0.253906"/><stop stop-opacity="1" stop-color="rgb(19.108582%, 61.064148%, 70.977783%)" offset="0.257812"/><stop stop-opacity="1" stop-color="rgb(19.113159%, 60.758972%, 70.81604%)" offset="0.261719"/><stop stop-opacity="1" stop-color="rgb(19.117737%, 60.453796%, 70.655823%)" offset="0.265625"/><stop stop-opacity="1" stop-color="rgb(19.122314%, 60.148621%, 70.49408%)" offset="0.269531"/><stop stop-opacity="1" stop-color="rgb(19.126892%, 59.843445%, 70.333862%)" offset="0.273438"/><stop stop-opacity="1" stop-color="rgb(19.13147%, 59.538269%, 70.172119%)" offset="0.277344"/><stop stop-opacity="1" stop-color="rgb(19.136047%, 59.233093%, 70.011902%)" offset="0.28125"/><stop stop-opacity="1" stop-color="rgb(19.140625%, 58.927917%, 69.850159%)" offset="0.285156"/><stop stop-opacity="1" stop-color="rgb(19.146729%, 58.622742%, 69.689941%)" offset="0.289063"/><stop stop-opacity="1" stop-color="rgb(19.151306%, 58.317566%, 69.528198%)" offset="0.292969"/><stop stop-opacity="1" stop-color="rgb(19.155884%, 58.013916%, 69.367981%)" offset="0.296875"/><stop stop-opacity="1" stop-color="rgb(19.160461%, 57.70874%, 69.206238%)" offset="0.300781"/><stop stop-opacity="1" stop-color="rgb(19.165039%, 57.403564%, 69.046021%)" offset="0.304688"/><stop stop-opacity="1" stop-color="rgb(19.169617%, 57.098389%, 68.884277%)" offset="0.308594"/><stop stop-opacity="1" stop-color="rgb(19.174194%, 56.793213%, 68.72406%)" offset="0.3125"/><stop stop-opacity="1" stop-color="rgb(19.178772%, 56.488037%, 68.562317%)" offset="0.316406"/><stop stop-opacity="1" stop-color="rgb(19.18335%, 56.182861%, 68.4021%)" offset="0.320312"/><stop stop-opacity="1" stop-color="rgb(19.187927%, 55.877686%, 68.240356%)" offset="0.324219"/><stop stop-opacity="1" stop-color="rgb(19.192505%, 55.57251%, 68.080139%)" offset="0.328125"/><stop stop-opacity="1" stop-color="rgb(19.197083%, 55.267334%, 67.918396%)" offset="0.332031"/><stop stop-opacity="1" stop-color="rgb(19.20166%, 54.962158%, 67.758179%)" offset="0.335937"/><stop stop-opacity="1" stop-color="rgb(19.206238%, 54.656982%, 67.596436%)" offset="0.339844"/><stop stop-opacity="1" stop-color="rgb(19.212341%, 54.351807%, 67.436218%)" offset="0.34375"/><stop stop-opacity="1" stop-color="rgb(19.216919%, 54.046631%, 67.274475%)" offset="0.347656"/><stop stop-opacity="1" stop-color="rgb(19.221497%, 53.741455%, 67.114258%)" offset="0.351562"/><stop stop-opacity="1" stop-color="rgb(19.226074%, 53.436279%, 66.952515%)" offset="0.355469"/><stop stop-opacity="1" stop-color="rgb(19.230652%, 53.132629%, 66.792297%)" offset="0.359375"/><stop stop-opacity="1" stop-color="rgb(19.235229%, 52.827454%, 66.63208%)" offset="0.363281"/><stop stop-opacity="1" stop-color="rgb(19.239807%, 52.522278%, 66.471863%)" offset="0.367188"/><stop stop-opacity="1" stop-color="rgb(19.244385%, 52.217102%, 66.31012%)" offset="0.371094"/><stop stop-opacity="1" stop-color="rgb(19.248962%, 51.911926%, 66.149902%)" offset="0.375"/><stop stop-opacity="1" stop-color="rgb(19.25354%, 51.60675%, 65.988159%)" offset="0.378906"/><stop stop-opacity="1" stop-color="rgb(19.258118%, 51.301575%, 65.827942%)" offset="0.382812"/><stop stop-opacity="1" stop-color="rgb(19.262695%, 50.996399%, 65.666199%)" offset="0.386719"/><stop stop-opacity="1" stop-color="rgb(19.267273%, 50.691223%, 65.505981%)" offset="0.390625"/><stop stop-opacity="1" stop-color="rgb(19.271851%, 50.386047%, 65.344238%)" offset="0.394531"/><stop stop-opacity="1" stop-color="rgb(19.277954%, 50.080872%, 65.184021%)" offset="0.398438"/><stop stop-opacity="1" stop-color="rgb(19.282532%, 49.775696%, 65.022278%)" offset="0.402344"/><stop stop-opacity="1" stop-color="rgb(19.287109%, 49.47052%, 64.862061%)" offset="0.40625"/><stop stop-opacity="1" stop-color="rgb(19.291687%, 49.165344%, 64.700317%)" offset="0.410156"/><stop stop-opacity="1" stop-color="rgb(19.296265%, 48.861694%, 64.5401%)" offset="0.414063"/><stop stop-opacity="1" stop-color="rgb(19.300842%, 48.556519%, 64.378357%)" offset="0.417969"/><stop stop-opacity="1" stop-color="rgb(19.30542%, 48.251343%, 64.21814%)" offset="0.421875"/><stop stop-opacity="1" stop-color="rgb(19.309998%, 47.946167%, 64.056396%)" offset="0.425781"/><stop stop-opacity="1" stop-color="rgb(19.314575%, 47.640991%, 63.896179%)" offset="0.429688"/><stop stop-opacity="1" stop-color="rgb(19.319153%, 47.335815%, 63.734436%)" offset="0.433594"/><stop stop-opacity="1" stop-color="rgb(19.32373%, 47.03064%, 63.574219%)" offset="0.4375"/><stop stop-opacity="1" stop-color="rgb(19.328308%, 46.725464%, 63.412476%)" offset="0.441406"/><stop stop-opacity="1" stop-color="rgb(19.332886%, 46.420288%, 63.252258%)" offset="0.445312"/><stop stop-opacity="1" stop-color="rgb(19.337463%, 46.115112%, 63.090515%)" offset="0.449219"/><stop stop-opacity="1" stop-color="rgb(19.343567%, 45.809937%, 62.930298%)" offset="0.453125"/><stop stop-opacity="1" stop-color="rgb(19.348145%, 45.504761%, 62.768555%)" offset="0.457031"/><stop stop-opacity="1" stop-color="rgb(19.352722%, 45.199585%, 62.608337%)" offset="0.460937"/><stop stop-opacity="1" stop-color="rgb(19.3573%, 44.894409%, 62.446594%)" offset="0.464844"/><stop stop-opacity="1" stop-color="rgb(19.361877%, 44.589233%, 62.286377%)" offset="0.46875"/><stop stop-opacity="1" stop-color="rgb(19.366455%, 44.284058%, 62.124634%)" offset="0.472656"/><stop stop-opacity="1" stop-color="rgb(19.371033%, 43.980408%, 61.964417%)" offset="0.476562"/><stop stop-opacity="1" stop-color="rgb(19.37561%, 43.675232%, 61.802673%)" offset="0.480469"/><stop stop-opacity="1" stop-color="rgb(19.380188%, 43.370056%, 61.642456%)" offset="0.484375"/><stop stop-opacity="1" stop-color="rgb(19.384766%, 43.06488%, 61.480713%)" offset="0.488281"/><stop stop-opacity="1" stop-color="rgb(19.389343%, 42.759705%, 61.320496%)" offset="0.492188"/><stop stop-opacity="1" stop-color="rgb(19.393921%, 42.454529%, 61.158752%)" offset="0.496094"/><stop stop-opacity="1" stop-color="rgb(19.398499%, 42.149353%, 60.998535%)" offset="0.5"/><stop stop-opacity="1" stop-color="rgb(19.403076%, 41.844177%, 60.838318%)" offset="0.503906"/><stop stop-opacity="1" stop-color="rgb(19.40918%, 41.539001%, 60.678101%)" offset="0.507812"/><stop stop-opacity="1" stop-color="rgb(19.413757%, 41.233826%, 60.516357%)" offset="0.511719"/><stop stop-opacity="1" stop-color="rgb(19.418335%, 40.92865%, 60.35614%)" offset="0.515625"/><stop stop-opacity="1" stop-color="rgb(19.422913%, 40.623474%, 60.194397%)" offset="0.519531"/><stop stop-opacity="1" stop-color="rgb(19.42749%, 40.318298%, 60.03418%)" offset="0.523438"/><stop stop-opacity="1" stop-color="rgb(19.432068%, 40.013123%, 59.872437%)" offset="0.527344"/><stop stop-opacity="1" stop-color="rgb(19.436646%, 39.707947%, 59.712219%)" offset="0.53125"/><stop stop-opacity="1" stop-color="rgb(19.441223%, 39.402771%, 59.550476%)" offset="0.535156"/><stop stop-opacity="1" stop-color="rgb(19.445801%, 39.099121%, 59.390259%)" offset="0.539062"/><stop stop-opacity="1" stop-color="rgb(19.450378%, 38.793945%, 59.228516%)" offset="0.542969"/><stop stop-opacity="1" stop-color="rgb(19.454956%, 38.48877%, 59.068298%)" offset="0.546875"/><stop stop-opacity="1" stop-color="rgb(19.459534%, 38.183594%, 58.906555%)" offset="0.550781"/><stop stop-opacity="1" stop-color="rgb(19.464111%, 37.878418%, 58.746338%)" offset="0.554687"/><stop stop-opacity="1" stop-color="rgb(19.468689%, 37.573242%, 58.584595%)" offset="0.558594"/><stop stop-opacity="1" stop-color="rgb(19.474792%, 37.268066%, 58.424377%)" offset="0.5625"/><stop stop-opacity="1" stop-color="rgb(19.47937%, 36.962891%, 58.262634%)" offset="0.566406"/><stop stop-opacity="1" stop-color="rgb(19.483948%, 36.657715%, 58.102417%)" offset="0.570312"/><stop stop-opacity="1" stop-color="rgb(19.488525%, 36.352539%, 57.940674%)" offset="0.574219"/><stop stop-opacity="1" stop-color="rgb(19.493103%, 36.047363%, 57.780457%)" offset="0.578125"/><stop stop-opacity="1" stop-color="rgb(19.497681%, 35.742188%, 57.618713%)" offset="0.582031"/><stop stop-opacity="1" stop-color="rgb(19.502258%, 35.437012%, 57.458496%)" offset="0.585937"/><stop stop-opacity="1" stop-color="rgb(19.506836%, 35.131836%, 57.296753%)" offset="0.589844"/><stop stop-opacity="1" stop-color="rgb(19.511414%, 34.82666%, 57.136536%)" offset="0.59375"/><stop stop-opacity="1" stop-color="rgb(19.515991%, 34.521484%, 56.974792%)" offset="0.597656"/><stop stop-opacity="1" stop-color="rgb(19.520569%, 34.217834%, 56.814575%)" offset="0.601562"/><stop stop-opacity="1" stop-color="rgb(19.525146%, 33.912659%, 56.652832%)" offset="0.605469"/><stop stop-opacity="1" stop-color="rgb(19.529724%, 33.607483%, 56.492615%)" offset="0.609375"/><stop stop-opacity="1" stop-color="rgb(19.534302%, 33.302307%, 56.330872%)" offset="0.613281"/><stop stop-opacity="1" stop-color="rgb(19.540405%, 32.997131%, 56.170654%)" offset="0.617187"/><stop stop-opacity="1" stop-color="rgb(19.544983%, 32.691956%, 56.008911%)" offset="0.621094"/><stop stop-opacity="1" stop-color="rgb(19.549561%, 32.38678%, 55.848694%)" offset="0.625"/><stop stop-opacity="1" stop-color="rgb(19.554138%, 32.081604%, 55.686951%)" offset="0.628906"/><stop stop-opacity="1" stop-color="rgb(19.558716%, 31.776428%, 55.526733%)" offset="0.632813"/><stop stop-opacity="1" stop-color="rgb(19.563293%, 31.471252%, 55.36499%)" offset="0.636719"/><stop stop-opacity="1" stop-color="rgb(19.567871%, 31.166077%, 55.204773%)" offset="0.640625"/><stop stop-opacity="1" stop-color="rgb(19.572449%, 30.860901%, 55.044556%)" offset="0.644531"/><stop stop-opacity="1" stop-color="rgb(19.577026%, 30.555725%, 54.884338%)" offset="0.648438"/><stop stop-opacity="1" stop-color="rgb(19.581604%, 30.250549%, 54.722595%)" offset="0.652344"/><stop stop-opacity="1" stop-color="rgb(19.586182%, 29.945374%, 54.562378%)" offset="0.65625"/><stop stop-opacity="1" stop-color="rgb(19.590759%, 29.640198%, 54.400635%)" offset="0.660156"/><stop stop-opacity="1" stop-color="rgb(19.596863%, 29.336548%, 54.240417%)" offset="0.664063"/><stop stop-opacity="1" stop-color="rgb(19.60144%, 29.031372%, 54.078674%)" offset="0.667969"/><stop stop-opacity="1" stop-color="rgb(19.606018%, 28.726196%, 53.918457%)" offset="0.671875"/><stop stop-opacity="1" stop-color="rgb(19.610596%, 28.421021%, 53.756714%)" offset="0.675781"/><stop stop-opacity="1" stop-color="rgb(19.615173%, 28.115845%, 53.596497%)" offset="0.679688"/><stop stop-opacity="1" stop-color="rgb(19.619751%, 27.810669%, 53.434753%)" offset="0.683594"/><stop stop-opacity="1" stop-color="rgb(19.624329%, 27.505493%, 53.274536%)" offset="0.6875"/><stop stop-opacity="1" stop-color="rgb(19.628906%, 27.200317%, 53.112793%)" offset="0.691406"/><stop stop-opacity="1" stop-color="rgb(19.633484%, 26.895142%, 52.952576%)" offset="0.695313"/><stop stop-opacity="1" stop-color="rgb(19.638062%, 26.589966%, 52.790833%)" offset="0.699219"/><stop stop-opacity="1" stop-color="rgb(19.642639%, 26.28479%, 52.630615%)" offset="0.703125"/><stop stop-opacity="1" stop-color="rgb(19.647217%, 25.979614%, 52.468872%)" offset="0.707031"/><stop stop-opacity="1" stop-color="rgb(19.651794%, 25.674438%, 52.308655%)" offset="0.710938"/><stop stop-opacity="1" stop-color="rgb(19.656372%, 25.369263%, 52.146912%)" offset="0.714844"/><stop stop-opacity="1" stop-color="rgb(19.662476%, 25.065613%, 51.986694%)" offset="0.71875"/><stop stop-opacity="1" stop-color="rgb(19.667053%, 24.760437%, 51.824951%)" offset="0.722656"/><stop stop-opacity="1" stop-color="rgb(19.671631%, 24.455261%, 51.664734%)" offset="0.726562"/><stop stop-opacity="1" stop-color="rgb(19.676208%, 24.150085%, 51.502991%)" offset="0.730469"/><stop stop-opacity="1" stop-color="rgb(19.680786%, 23.84491%, 51.342773%)" offset="0.734375"/><stop stop-opacity="1" stop-color="rgb(19.685364%, 23.539734%, 51.18103%)" offset="0.738281"/><stop stop-opacity="1" stop-color="rgb(19.689941%, 23.234558%, 51.020813%)" offset="0.742188"/><stop stop-opacity="1" stop-color="rgb(19.694519%, 22.929382%, 50.85907%)" offset="0.746094"/><stop stop-opacity="1" stop-color="rgb(19.699097%, 22.624207%, 50.698853%)" offset="0.75"/><stop stop-opacity="1" stop-color="rgb(19.703674%, 22.319031%, 50.537109%)" offset="0.753906"/><stop stop-opacity="1" stop-color="rgb(19.708252%, 22.013855%, 50.376892%)" offset="0.757812"/><stop stop-opacity="1" stop-color="rgb(19.71283%, 21.708679%, 50.215149%)" offset="0.761719"/><stop stop-opacity="1" stop-color="rgb(19.717407%, 21.403503%, 50.054932%)" offset="0.765625"/><stop stop-opacity="1" stop-color="rgb(19.721985%, 21.098328%, 49.893188%)" offset="0.769531"/><stop stop-opacity="1" stop-color="rgb(19.728088%, 20.793152%, 49.732971%)" offset="0.773438"/><stop stop-opacity="1" stop-color="rgb(19.732666%, 20.487976%, 49.571228%)" offset="0.777344"/><stop stop-opacity="1" stop-color="rgb(19.737244%, 20.184326%, 49.411011%)" offset="0.78125"/><stop stop-opacity="1" stop-color="rgb(19.741821%, 19.87915%, 49.250793%)" offset="0.785156"/><stop stop-opacity="1" stop-color="rgb(19.746399%, 19.573975%, 49.090576%)" offset="0.789062"/><stop stop-opacity="1" stop-color="rgb(19.750977%, 19.268799%, 48.928833%)" offset="0.792969"/><stop stop-opacity="1" stop-color="rgb(19.755554%, 18.963623%, 48.768616%)" offset="0.796875"/><stop stop-opacity="1" stop-color="rgb(19.760132%, 18.658447%, 48.606873%)" offset="0.800781"/><stop stop-opacity="1" stop-color="rgb(19.764709%, 18.353271%, 48.446655%)" offset="0.804687"/><stop stop-opacity="1" stop-color="rgb(19.769287%, 18.048096%, 48.284912%)" offset="0.808594"/><stop stop-opacity="1" stop-color="rgb(19.773865%, 17.74292%, 48.124695%)" offset="0.8125"/><stop stop-opacity="1" stop-color="rgb(19.778442%, 17.437744%, 47.962952%)" offset="0.816406"/><stop stop-opacity="1" stop-color="rgb(19.78302%, 17.132568%, 47.802734%)" offset="0.820312"/><stop stop-opacity="1" stop-color="rgb(19.787598%, 16.827393%, 47.640991%)" offset="0.824219"/><stop stop-opacity="1" stop-color="rgb(19.793701%, 16.522217%, 47.480774%)" offset="0.828125"/><stop stop-opacity="1" stop-color="rgb(19.798279%, 16.217041%, 47.319031%)" offset="0.832031"/><stop stop-opacity="1" stop-color="rgb(19.802856%, 15.911865%, 47.158813%)" offset="0.835937"/><stop stop-opacity="1" stop-color="rgb(19.807434%, 15.606689%, 46.99707%)" offset="0.839844"/><stop stop-opacity="1" stop-color="rgb(19.812012%, 15.30304%, 46.836853%)" offset="0.84375"/><stop stop-opacity="1" stop-color="rgb(19.816589%, 14.997864%, 46.67511%)" offset="0.847656"/><stop stop-opacity="1" stop-color="rgb(19.821167%, 14.692688%, 46.514893%)" offset="0.851562"/><stop stop-opacity="1" stop-color="rgb(19.825745%, 14.387512%, 46.353149%)" offset="0.855469"/><stop stop-opacity="1" stop-color="rgb(19.830322%, 14.082336%, 46.192932%)" offset="0.859375"/><stop stop-opacity="1" stop-color="rgb(19.8349%, 13.777161%, 46.031189%)" offset="0.863281"/><stop stop-opacity="1" stop-color="rgb(19.839478%, 13.471985%, 45.870972%)" offset="0.867187"/><stop stop-opacity="1" stop-color="rgb(19.844055%, 13.166809%, 45.709229%)" offset="0.871094"/><stop stop-opacity="1" stop-color="rgb(19.848633%, 12.861633%, 45.549011%)" offset="0.875"/><stop stop-opacity="1" stop-color="rgb(19.85321%, 12.556458%, 45.387268%)" offset="0.878906"/><stop stop-opacity="1" stop-color="rgb(19.859314%, 12.251282%, 45.227051%)" offset="0.882813"/><stop stop-opacity="1" stop-color="rgb(19.863892%, 11.946106%, 45.065308%)" offset="0.886719"/><stop stop-opacity="1" stop-color="rgb(19.868469%, 11.64093%, 44.90509%)" offset="0.890625"/><stop stop-opacity="1" stop-color="rgb(19.873047%, 11.335754%, 44.743347%)" offset="0.894531"/><stop stop-opacity="1" stop-color="rgb(19.877625%, 11.030579%, 44.58313%)" offset="0.898438"/><stop stop-opacity="1" stop-color="rgb(19.882202%, 10.725403%, 44.421387%)" offset="0.902344"/><stop stop-opacity="1" stop-color="rgb(19.88678%, 10.421753%, 44.261169%)" offset="0.90625"/><stop stop-opacity="1" stop-color="rgb(19.891357%, 10.116577%, 44.099426%)" offset="0.910156"/><stop stop-opacity="1" stop-color="rgb(19.895935%, 9.811401%, 43.939209%)" offset="0.914063"/><stop stop-opacity="1" stop-color="rgb(19.900513%, 9.506226%, 43.777466%)" offset="0.917969"/><stop stop-opacity="1" stop-color="rgb(19.90509%, 9.20105%, 43.617249%)" offset="0.921875"/><stop stop-opacity="1" stop-color="rgb(19.909668%, 8.895874%, 43.457031%)" offset="0.925781"/><stop stop-opacity="1" stop-color="rgb(19.914246%, 8.590698%, 43.296814%)" offset="0.929688"/><stop stop-opacity="1" stop-color="rgb(19.918823%, 8.285522%, 43.135071%)" offset="0.933594"/><stop stop-opacity="1" stop-color="rgb(19.924927%, 7.980347%, 42.974854%)" offset="0.9375"/><stop stop-opacity="1" stop-color="rgb(19.929504%, 7.675171%, 42.81311%)" offset="0.941406"/><stop stop-opacity="1" stop-color="rgb(19.934082%, 7.369995%, 42.652893%)" offset="0.945313"/><stop stop-opacity="1" stop-color="rgb(19.93866%, 7.064819%, 42.49115%)" offset="0.949219"/><stop stop-opacity="1" stop-color="rgb(19.943237%, 6.759644%, 42.330933%)" offset="0.953125"/><stop stop-opacity="1" stop-color="rgb(19.947815%, 6.454468%, 42.169189%)" offset="0.957031"/><stop stop-opacity="1" stop-color="rgb(19.952393%, 6.149292%, 42.008972%)" offset="0.960938"/><stop stop-opacity="1" stop-color="rgb(19.95697%, 5.844116%, 41.847229%)" offset="0.964844"/><stop stop-opacity="1" stop-color="rgb(19.961548%, 5.540466%, 41.687012%)" offset="0.96875"/><stop stop-opacity="1" stop-color="rgb(19.966125%, 5.235291%, 41.525269%)" offset="0.972656"/><stop stop-opacity="1" stop-color="rgb(19.970703%, 4.930115%, 41.365051%)" offset="0.976562"/><stop stop-opacity="1" stop-color="rgb(19.975281%, 4.624939%, 41.203308%)" offset="0.980469"/><stop stop-opacity="1" stop-color="rgb(19.979858%, 4.319763%, 41.043091%)" offset="0.984375"/><stop stop-opacity="1" stop-color="rgb(19.984436%, 4.014587%, 40.881348%)" offset="0.988281"/><stop stop-opacity="1" stop-color="rgb(19.99054%, 3.709412%, 40.72113%)" offset="0.992188"/><stop stop-opacity="1" stop-color="rgb(19.995117%, 3.404236%, 40.559387%)" offset="0.996094"/><stop stop-opacity="1" stop-color="rgb(19.999695%, 3.09906%, 40.39917%)" offset="1"/></linearGradient><clipPath id="6b23f93437"><path d="M 69 83 L 306.746094 83 L 306.746094 316 L 69 316 Z M 69 83 " clip-rule="nonzero"/></clipPath></defs><g clip-path="url(#04b6c32280)"><g clip-path="url(#f97db7a5c6)"><path fill="url(#b54a6ea001)" d="M 25.476562 37.5 L 25.476562 361.546875 L 349.523438 361.546875 L 349.523438 37.5 Z M 25.476562 37.5 " fill-rule="nonzero"/></g></g><g clip-path="url(#6b23f93437)"><path fill="#ffffff" d="M 306.746094 270.785156 C 306.75 271.890625 306.703125 272.992188 306.605469 274.09375 C 306.507812 275.191406 306.355469 276.285156 306.15625 277.375 C 305.957031 278.460938 305.707031 279.535156 305.40625 280.597656 C 305.105469 281.660156 304.757812 282.707031 304.359375 283.738281 C 303.960938 284.769531 303.515625 285.78125 303.023438 286.769531 C 302.53125 287.757812 301.996094 288.722656 301.414062 289.664062 C 300.832031 290.601562 300.207031 291.511719 299.542969 292.394531 C 298.875 293.273438 298.167969 294.125 297.425781 294.941406 C 296.679688 295.753906 295.898438 296.535156 295.078125 297.277344 C 294.261719 298.019531 293.410156 298.722656 292.527344 299.386719 C 291.644531 300.050781 290.734375 300.671875 289.792969 301.253906 C 288.851562 301.832031 287.886719 302.367188 286.894531 302.855469 C 285.902344 303.34375 284.890625 303.785156 283.859375 304.179688 C 282.828125 304.574219 281.78125 304.921875 280.714844 305.21875 C 279.652344 305.515625 278.578125 305.765625 277.488281 305.960938 C 276.402344 306.160156 275.308594 306.304688 274.207031 306.402344 C 273.105469 306.496094 272.003906 306.542969 270.898438 306.535156 C 269.792969 306.527344 268.691406 306.46875 267.59375 306.359375 C 266.492188 306.25 265.402344 306.089844 264.316406 305.878906 C 263.230469 305.667969 262.160156 305.40625 261.101562 305.09375 C 260.039062 304.785156 258.996094 304.425781 257.96875 304.015625 C 256.941406 303.609375 255.9375 303.152344 254.953125 302.652344 C 253.96875 302.148438 253.007812 301.605469 252.074219 301.011719 C 251.140625 300.421875 250.238281 299.789062 249.363281 299.113281 C 248.488281 298.4375 247.644531 297.726562 246.839844 296.972656 C 246.03125 296.21875 245.257812 295.429688 244.523438 294.605469 C 243.789062 293.777344 243.09375 292.921875 242.4375 292.03125 C 241.785156 291.140625 241.171875 290.222656 240.601562 289.277344 C 240.03125 288.328125 239.507812 287.359375 239.027344 286.363281 C 238.550781 285.367188 238.117188 284.351562 237.734375 283.316406 C 237.347656 282.28125 237.011719 281.230469 236.726562 280.160156 C 236.4375 279.09375 236.203125 278.015625 236.015625 276.925781 C 235.828125 275.839844 235.691406 274.742188 235.609375 273.640625 C 235.523438 272.539062 235.492188 271.4375 235.507812 270.332031 C 235.527344 269.226562 235.597656 268.125 235.714844 267.027344 C 235.835938 265.929688 236.007812 264.839844 236.230469 263.757812 C 236.453125 262.675781 236.722656 261.605469 237.046875 260.546875 C 237.367188 259.488281 237.738281 258.449219 238.15625 257.425781 C 238.574219 256.40625 239.039062 255.402344 239.550781 254.425781 C 240.0625 253.445312 240.617188 252.492188 241.21875 251.5625 C 241.816406 250.636719 242.460938 249.738281 243.144531 248.871094 C 243.828125 248.003906 244.550781 247.167969 245.308594 246.367188 C 246.070312 245.566406 246.867188 244.804688 247.699219 244.078125 C 248.535156 243.351562 249.398438 242.664062 250.292969 242.015625 C 251.191406 241.371094 252.113281 240.769531 253.066406 240.207031 C 254.019531 239.648438 254.996094 239.132812 255.996094 238.664062 C 256.996094 238.195312 258.015625 237.773438 259.054688 237.398438 C 260.09375 237.023438 261.148438 236.699219 262.21875 236.421875 L 262.21875 152.046875 C 262.21875 151.070312 262.125 150.105469 261.933594 149.152344 C 261.742188 148.195312 261.460938 147.265625 261.085938 146.367188 C 260.714844 145.46875 260.257812 144.613281 259.714844 143.800781 C 259.171875 142.992188 258.558594 142.242188 257.867188 141.554688 C 257.179688 140.863281 256.429688 140.25 255.621094 139.707031 C 254.808594 139.167969 253.957031 138.710938 253.054688 138.335938 C 252.15625 137.960938 251.226562 137.679688 250.273438 137.488281 C 249.316406 137.300781 248.351562 137.203125 247.378906 137.203125 L 221.375 137.203125 L 241.796875 157.625 C 242.234375 158.035156 242.625 158.480469 242.972656 158.96875 C 243.320312 159.453125 243.617188 159.96875 243.859375 160.515625 C 244.105469 161.0625 244.289062 161.628906 244.417969 162.210938 C 244.550781 162.796875 244.621094 163.386719 244.628906 163.984375 C 244.640625 164.582031 244.589844 165.175781 244.480469 165.761719 C 244.375 166.351562 244.207031 166.921875 243.984375 167.476562 C 243.757812 168.03125 243.480469 168.558594 243.152344 169.054688 C 242.820312 169.554688 242.445312 170.015625 242.023438 170.4375 C 241.601562 170.859375 241.140625 171.238281 240.640625 171.566406 C 240.140625 171.898438 239.617188 172.175781 239.0625 172.398438 C 238.507812 172.621094 237.933594 172.789062 237.347656 172.898438 C 236.757812 173.007812 236.167969 173.054688 235.570312 173.046875 C 234.96875 173.035156 234.378906 172.964844 233.796875 172.835938 C 233.210938 172.707031 232.648438 172.519531 232.101562 172.277344 C 231.554688 172.03125 231.039062 171.738281 230.550781 171.390625 C 230.066406 171.042969 229.617188 170.648438 229.210938 170.210938 L 193.589844 134.589844 C 193.175781 134.175781 192.804688 133.726562 192.480469 133.242188 C 192.15625 132.753906 191.882812 132.242188 191.660156 131.703125 C 191.433594 131.160156 191.265625 130.605469 191.152344 130.03125 C 191.039062 129.457031 190.980469 128.878906 190.980469 128.292969 C 190.980469 127.710938 191.039062 127.128906 191.152344 126.554688 C 191.265625 125.984375 191.433594 125.425781 191.660156 124.886719 C 191.882812 124.347656 192.15625 123.832031 192.480469 123.347656 C 192.804688 122.859375 193.175781 122.410156 193.589844 121.996094 L 229.210938 86.375 C 229.628906 85.980469 230.078125 85.628906 230.5625 85.320312 C 231.050781 85.011719 231.558594 84.75 232.09375 84.542969 C 232.628906 84.332031 233.179688 84.175781 233.746094 84.074219 C 234.3125 83.972656 234.882812 83.921875 235.457031 83.929688 C 236.03125 83.9375 236.601562 84 237.164062 84.121094 C 237.726562 84.238281 238.273438 84.40625 238.804688 84.632812 C 239.332031 84.855469 239.835938 85.128906 240.3125 85.449219 C 240.789062 85.769531 241.230469 86.132812 241.636719 86.539062 C 242.042969 86.945312 242.410156 87.390625 242.730469 87.867188 C 243.050781 88.34375 243.324219 88.847656 243.546875 89.375 C 243.769531 89.90625 243.9375 90.453125 244.058594 91.015625 C 244.175781 91.578125 244.238281 92.148438 244.246094 92.722656 C 244.25 93.296875 244.203125 93.867188 244.101562 94.433594 C 243.996094 95 243.839844 95.550781 243.632812 96.085938 C 243.421875 96.621094 243.164062 97.128906 242.855469 97.617188 C 242.542969 98.101562 242.191406 98.550781 241.796875 98.96875 L 221.375 119.390625 L 247.378906 119.390625 C 248.445312 119.394531 249.511719 119.445312 250.578125 119.550781 C 251.640625 119.65625 252.695312 119.816406 253.746094 120.023438 C 254.792969 120.234375 255.828125 120.496094 256.851562 120.804688 C 257.875 121.117188 258.878906 121.476562 259.867188 121.886719 C 260.855469 122.296875 261.820312 122.753906 262.761719 123.257812 C 263.707031 123.761719 264.621094 124.3125 265.511719 124.90625 C 266.398438 125.5 267.257812 126.136719 268.082031 126.8125 C 268.910156 127.492188 269.699219 128.210938 270.457031 128.964844 C 271.214844 129.722656 271.929688 130.511719 272.609375 131.339844 C 273.285156 132.164062 273.921875 133.023438 274.515625 133.910156 C 275.113281 134.800781 275.660156 135.714844 276.164062 136.660156 C 276.667969 137.601562 277.125 138.566406 277.535156 139.554688 C 277.945312 140.542969 278.304688 141.546875 278.617188 142.570312 C 278.929688 143.59375 279.1875 144.628906 279.398438 145.675781 C 279.605469 146.726562 279.765625 147.78125 279.871094 148.84375 C 279.976562 149.910156 280.03125 150.976562 280.03125 152.046875 L 280.03125 236.421875 C 280.976562 236.664062 281.910156 236.945312 282.832031 237.265625 C 283.757812 237.585938 284.664062 237.941406 285.558594 238.335938 C 286.449219 238.730469 287.328125 239.160156 288.183594 239.625 C 289.042969 240.09375 289.878906 240.59375 290.695312 241.128906 C 291.511719 241.664062 292.304688 242.234375 293.074219 242.835938 C 293.84375 243.433594 294.589844 244.066406 295.308594 244.726562 C 296.023438 245.390625 296.714844 246.082031 297.375 246.800781 C 298.035156 247.519531 298.664062 248.265625 299.265625 249.035156 C 299.863281 249.804688 300.429688 250.601562 300.964844 251.417969 C 301.5 252.234375 301.996094 253.074219 302.460938 253.933594 C 302.925781 254.789062 303.355469 255.667969 303.75 256.5625 C 304.140625 257.457031 304.496094 258.363281 304.8125 259.289062 C 305.132812 260.210938 305.410156 261.144531 305.652344 262.09375 C 305.890625 263.039062 306.09375 263.992188 306.253906 264.957031 C 306.417969 265.917969 306.539062 266.886719 306.621094 267.859375 C 306.703125 268.832031 306.746094 269.808594 306.746094 270.785156 Z M 146.804688 228.871094 C 146.386719 228.480469 145.9375 228.132812 145.449219 227.832031 C 144.964844 227.527344 144.457031 227.273438 143.921875 227.070312 C 143.390625 226.867188 142.839844 226.714844 142.277344 226.613281 C 141.714844 226.515625 141.148438 226.472656 140.578125 226.480469 C 140.003906 226.492188 139.441406 226.554688 138.882812 226.675781 C 138.324219 226.792969 137.78125 226.964844 137.253906 227.1875 C 136.726562 227.410156 136.226562 227.683594 135.753906 228.003906 C 135.28125 228.320312 134.839844 228.683594 134.4375 229.085938 C 134.03125 229.492188 133.671875 229.929688 133.351562 230.40625 C 133.03125 230.878906 132.761719 231.378906 132.539062 231.90625 C 132.3125 232.429688 132.144531 232.972656 132.023438 233.53125 C 131.90625 234.089844 131.839844 234.65625 131.832031 235.226562 C 131.820312 235.800781 131.863281 236.367188 131.964844 236.929688 C 132.0625 237.492188 132.214844 238.039062 132.417969 238.574219 C 132.625 239.109375 132.878906 239.617188 133.179688 240.101562 C 133.484375 240.585938 133.828125 241.039062 134.21875 241.457031 L 154.640625 261.878906 L 128.636719 261.878906 C 127.664062 261.878906 126.699219 261.78125 125.742188 261.589844 C 124.789062 261.402344 123.859375 261.117188 122.960938 260.746094 C 122.058594 260.371094 121.207031 259.914062 120.394531 259.375 C 119.585938 258.832031 118.835938 258.21875 118.148438 257.527344 C 117.457031 256.839844 116.84375 256.089844 116.300781 255.28125 C 115.757812 254.46875 115.300781 253.613281 114.929688 252.714844 C 114.554688 251.8125 114.273438 250.886719 114.082031 249.929688 C 113.890625 248.976562 113.796875 248.011719 113.796875 247.035156 L 113.796875 162.660156 C 114.488281 162.480469 115.175781 162.28125 115.855469 162.0625 C 116.535156 161.839844 117.207031 161.601562 117.871094 161.339844 C 118.539062 161.078125 119.195312 160.800781 119.84375 160.5 C 120.492188 160.199219 121.132812 159.878906 121.761719 159.542969 C 122.390625 159.203125 123.011719 158.84375 123.617188 158.46875 C 124.226562 158.09375 124.824219 157.699219 125.40625 157.289062 C 125.992188 156.875 126.5625 156.449219 127.121094 156 C 127.679688 155.554688 128.226562 155.09375 128.753906 154.613281 C 129.285156 154.136719 129.800781 153.640625 130.304688 153.128906 C 130.804688 152.621094 131.289062 152.097656 131.757812 151.558594 C 132.226562 151.015625 132.679688 150.464844 133.117188 149.898438 C 133.554688 149.332031 133.972656 148.753906 134.371094 148.160156 C 134.773438 147.570312 135.15625 146.964844 135.523438 146.351562 C 135.886719 145.738281 136.234375 145.113281 136.558594 144.476562 C 136.886719 143.839844 137.195312 143.195312 137.484375 142.542969 C 137.773438 141.886719 138.039062 141.226562 138.289062 140.554688 C 138.539062 139.886719 138.765625 139.207031 138.972656 138.523438 C 139.179688 137.839844 139.367188 137.148438 139.535156 136.453125 C 139.699219 135.761719 139.847656 135.058594 139.96875 134.355469 C 140.09375 133.652344 140.199219 132.945312 140.277344 132.234375 C 140.359375 131.523438 140.421875 130.8125 140.460938 130.097656 C 140.5 129.386719 140.515625 128.671875 140.511719 127.957031 C 140.507812 127.242188 140.480469 126.527344 140.433594 125.8125 C 140.386719 125.101562 140.316406 124.390625 140.226562 123.679688 C 140.136719 122.972656 140.027344 122.265625 139.894531 121.5625 C 139.761719 120.859375 139.609375 120.164062 139.433594 119.46875 C 139.257812 118.777344 139.0625 118.089844 138.847656 117.40625 C 138.632812 116.726562 138.394531 116.050781 138.140625 115.382812 C 137.882812 114.71875 137.605469 114.058594 137.308594 113.40625 C 137.011719 112.757812 136.699219 112.117188 136.363281 111.484375 C 136.027344 110.851562 135.675781 110.230469 135.300781 109.621094 C 134.929688 109.011719 134.539062 108.414062 134.132812 107.824219 C 133.722656 107.238281 133.296875 106.664062 132.855469 106.101562 C 132.414062 105.542969 131.953125 104.996094 131.476562 104.460938 C 131 103.929688 130.511719 103.410156 130.003906 102.90625 C 129.496094 102.402344 128.976562 101.914062 128.4375 101.441406 C 127.902344 100.96875 127.351562 100.511719 126.789062 100.074219 C 126.222656 99.632812 125.648438 99.210938 125.058594 98.804688 C 124.46875 98.402344 123.867188 98.015625 123.253906 97.644531 C 122.644531 97.277344 122.019531 96.929688 121.386719 96.597656 C 120.753906 96.265625 120.109375 95.953125 119.457031 95.660156 C 118.804688 95.371094 118.144531 95.097656 117.476562 94.84375 C 116.808594 94.589844 116.132812 94.359375 115.449219 94.148438 C 114.765625 93.9375 114.078125 93.746094 113.382812 93.574219 C 112.6875 93.402344 111.992188 93.253906 111.289062 93.125 C 110.582031 92.996094 109.878906 92.890625 109.167969 92.804688 C 108.457031 92.71875 107.746094 92.652344 107.03125 92.609375 C 106.320312 92.566406 105.605469 92.546875 104.890625 92.546875 C 104.175781 92.546875 103.460938 92.566406 102.746094 92.609375 C 102.035156 92.652344 101.324219 92.71875 100.613281 92.804688 C 99.902344 92.890625 99.195312 92.996094 98.492188 93.125 C 97.789062 93.253906 97.089844 93.402344 96.398438 93.574219 C 95.703125 93.746094 95.015625 93.9375 94.332031 94.148438 C 93.648438 94.359375 92.972656 94.589844 92.304688 94.84375 C 91.636719 95.097656 90.976562 95.371094 90.324219 95.660156 C 89.671875 95.953125 89.027344 96.265625 88.394531 96.597656 C 87.761719 96.929688 87.136719 97.277344 86.523438 97.644531 C 85.914062 98.015625 85.3125 98.402344 84.722656 98.804688 C 84.132812 99.210938 83.554688 99.632812 82.992188 100.074219 C 82.429688 100.511719 81.878906 100.96875 81.34375 101.441406 C 80.804688 101.914062 80.285156 102.402344 79.777344 102.90625 C 79.269531 103.410156 78.777344 103.929688 78.304688 104.460938 C 77.828125 104.996094 77.367188 105.542969 76.925781 106.101562 C 76.480469 106.664062 76.058594 107.238281 75.648438 107.824219 C 75.242188 108.414062 74.851562 109.011719 74.476562 109.621094 C 74.105469 110.230469 73.753906 110.851562 73.417969 111.484375 C 73.082031 112.117188 72.765625 112.757812 72.472656 113.40625 C 72.175781 114.058594 71.898438 114.71875 71.640625 115.382812 C 71.386719 116.050781 71.148438 116.726562 70.933594 117.40625 C 70.71875 118.089844 70.523438 118.777344 70.347656 119.46875 C 70.171875 120.164062 70.019531 120.859375 69.886719 121.5625 C 69.753906 122.265625 69.640625 122.972656 69.550781 123.679688 C 69.460938 124.390625 69.394531 125.101562 69.347656 125.8125 C 69.300781 126.527344 69.273438 127.242188 69.269531 127.957031 C 69.265625 128.671875 69.28125 129.386719 69.320312 130.097656 C 69.359375 130.8125 69.417969 131.523438 69.5 132.234375 C 69.582031 132.945312 69.6875 133.652344 69.808594 134.355469 C 69.933594 135.058594 70.078125 135.761719 70.246094 136.453125 C 70.410156 137.148438 70.597656 137.839844 70.808594 138.523438 C 71.015625 139.207031 71.242188 139.886719 71.492188 140.554688 C 71.738281 141.226562 72.007812 141.886719 72.296875 142.542969 C 72.585938 143.195312 72.894531 143.839844 73.21875 144.476562 C 73.546875 145.113281 73.894531 145.738281 74.257812 146.351562 C 74.625 146.964844 75.007812 147.570312 75.40625 148.160156 C 75.808594 148.753906 76.226562 149.332031 76.664062 149.898438 C 77.101562 150.464844 77.550781 151.015625 78.023438 151.558594 C 78.492188 152.097656 78.976562 152.621094 79.476562 153.128906 C 79.976562 153.640625 80.492188 154.136719 81.023438 154.613281 C 81.554688 155.09375 82.101562 155.554688 82.660156 156 C 83.21875 156.449219 83.789062 156.875 84.375 157.289062 C 84.957031 157.699219 85.554688 158.09375 86.160156 158.46875 C 86.769531 158.84375 87.386719 159.203125 88.019531 159.542969 C 88.648438 159.878906 89.285156 160.199219 89.9375 160.5 C 90.585938 160.800781 91.242188 161.078125 91.90625 161.339844 C 92.574219 161.601562 93.246094 161.839844 93.925781 162.0625 C 94.605469 162.28125 95.292969 162.480469 95.984375 162.660156 L 95.984375 247.035156 C 95.984375 248.105469 96.039062 249.171875 96.144531 250.234375 C 96.25 251.300781 96.410156 252.355469 96.617188 253.40625 C 96.828125 254.453125 97.085938 255.488281 97.398438 256.511719 C 97.710938 257.535156 98.070312 258.539062 98.480469 259.527344 C 98.890625 260.515625 99.347656 261.480469 99.851562 262.421875 C 100.355469 263.367188 100.902344 264.28125 101.5 265.167969 C 102.09375 266.058594 102.730469 266.917969 103.40625 267.742188 C 104.085938 268.570312 104.800781 269.359375 105.558594 270.117188 C 106.3125 270.871094 107.105469 271.589844 107.933594 272.269531 C 108.757812 272.945312 109.617188 273.582031 110.503906 274.175781 C 111.394531 274.769531 112.308594 275.320312 113.253906 275.824219 C 114.195312 276.328125 115.160156 276.785156 116.148438 277.195312 C 117.136719 277.605469 118.140625 277.964844 119.164062 278.277344 C 120.1875 278.585938 121.222656 278.847656 122.269531 279.058594 C 123.320312 279.265625 124.375 279.425781 125.4375 279.53125 C 126.503906 279.636719 127.570312 279.6875 128.636719 279.691406 L 154.640625 279.691406 L 134.21875 300.113281 C 133.78125 300.519531 133.390625 300.96875 133.042969 301.453125 C 132.695312 301.941406 132.398438 302.457031 132.15625 303.003906 C 131.910156 303.550781 131.726562 304.113281 131.597656 304.699219 C 131.464844 305.28125 131.394531 305.875 131.386719 306.472656 C 131.375 307.070312 131.425781 307.660156 131.535156 308.25 C 131.640625 308.839844 131.808594 309.410156 132.03125 309.964844 C 132.257812 310.519531 132.535156 311.042969 132.863281 311.542969 C 133.195312 312.042969 133.570312 312.503906 133.992188 312.925781 C 134.414062 313.347656 134.875 313.722656 135.375 314.054688 C 135.875 314.382812 136.398438 314.660156 136.953125 314.886719 C 137.507812 315.109375 138.082031 315.277344 138.667969 315.386719 C 139.257812 315.492188 139.847656 315.542969 140.445312 315.53125 C 141.042969 315.523438 141.636719 315.453125 142.21875 315.320312 C 142.804688 315.191406 143.367188 315.007812 143.914062 314.761719 C 144.460938 314.519531 144.976562 314.222656 145.464844 313.875 C 145.949219 313.527344 146.398438 313.136719 146.804688 312.699219 L 182.425781 277.078125 C 182.839844 276.664062 183.210938 276.214844 183.535156 275.726562 C 183.859375 275.242188 184.132812 274.730469 184.355469 274.1875 C 184.582031 273.648438 184.75 273.089844 184.863281 272.519531 C 184.976562 271.945312 185.035156 271.367188 185.035156 270.78125 C 185.035156 270.195312 184.976562 269.617188 184.863281 269.042969 C 184.75 268.46875 184.582031 267.914062 184.355469 267.375 C 184.132812 266.832031 183.859375 266.320312 183.535156 265.832031 C 183.210938 265.347656 182.839844 264.898438 182.425781 264.484375 Z M 146.804688 228.871094 " fill-opacity="1" fill-rule="nonzero"/></g></svg>